<svg width="16" height="17" viewBox="0 0 16 17" fill="none" xmlns="http://www.w3.org/2000/svg">
<path d="M7.63603 0.827591C3.41672 0.827591 0 4.25196 0 8.47127C0 12.6906 3.41672 16.1149 7.63603 16.1149C11.863 16.1149 15.2874 12.6906 15.2874 8.47127C15.2874 4.25196 11.863 0.827591 7.63603 0.827591ZM12.9331 5.4138H10.6782C10.4336 4.45834 10.082 3.5411 9.62339 2.69265C11.0298 3.1742 12.1993 4.15259 12.9331 5.4138ZM7.64368 2.3869C8.2781 3.30414 8.77494 4.32075 9.10362 5.4138H6.18374C6.51241 4.32075 7.00925 3.30414 7.64368 2.3869ZM1.72747 10C1.60517 9.51081 1.52874 8.99868 1.52874 8.47127C1.52874 7.94386 1.60517 7.43173 1.72747 6.94253H4.31103C4.24988 7.44702 4.20402 7.9515 4.20402 8.47127C4.20402 8.99104 4.24988 9.49552 4.31103 10H1.72747ZM2.35425 11.5287H4.60914C4.85374 12.4842 5.20534 13.4014 5.66397 14.2499C4.25753 13.7683 3.08805 12.7976 2.35425 11.5287V11.5287ZM4.60914 5.4138H2.35425C3.08805 4.14495 4.25753 3.1742 5.66397 2.69265C5.20534 3.5411 4.85374 4.45834 4.60914 5.4138V5.4138ZM7.64368 14.5556C7.00925 13.6384 6.51241 12.6218 6.18374 11.5287H9.10362C8.77494 12.6218 8.2781 13.6384 7.64368 14.5556ZM9.4323 10H5.85506C5.78626 9.49552 5.73276 8.99104 5.73276 8.47127C5.73276 7.9515 5.78626 7.43937 5.85506 6.94253H9.4323C9.50109 7.43937 9.5546 7.9515 9.5546 8.47127C9.5546 8.99104 9.50109 9.49552 9.4323 10ZM9.62339 14.2499C10.082 13.4014 10.4336 12.4842 10.6782 11.5287H12.9331C12.1993 12.7899 11.0298 13.7683 9.62339 14.2499V14.2499ZM10.9763 10C11.0375 9.49552 11.0833 8.99104 11.0833 8.47127C11.0833 7.9515 11.0375 7.44702 10.9763 6.94253H13.5599C13.6822 7.43173 13.7586 7.94386 13.7586 8.47127C13.7586 8.99868 13.6822 9.51081 13.5599 10H10.9763Z" fill="black"/>
</svg>
