<svg width="12" height="13" viewBox="0 0 12 13" fill="none" xmlns="http://www.w3.org/2000/svg">
<path d="M6.3254 0.159004C3.338 0.159004 0.911133 2.58587 0.911133 5.57328C0.911133 8.56068 3.338 10.9875 6.3254 10.9875H6.64389V12.8985C9.73958 11.408 11.7397 8.43966 11.7397 5.57328C11.7397 2.58587 9.31281 0.159004 6.3254 0.159004ZM6.96238 9.39512H5.68843V8.12117H6.96238V9.39512ZM6.96238 7.16571H5.68843C5.68843 5.09555 7.59935 5.25479 7.59935 3.98084C7.59935 3.28017 7.02607 2.7069 6.3254 2.7069C5.62473 2.7069 5.05146 3.28017 5.05146 3.98084H3.77751C3.77751 2.57313 4.91769 1.43295 6.3254 1.43295C7.73312 1.43295 8.8733 2.57313 8.8733 3.98084C8.8733 5.57328 6.96238 5.73252 6.96238 7.16571Z" fill="black"/>
</svg>
